# xmcd CD database file
#
# Track frame offsets:
#	150
#	20699
#	35738
#	43478
#	68866
#	77722
#	95713
#	117272
#	130474
#	150676
#	174602
#	212390
#
# Disc length: 2880 seconds
#
# Revision: 0
# Processed by: cddbd v1.5.1PL2 Copyright (c) Steve Scherf et al.
# Submitted via: CDex 1.60beta1
#
DISCID=ad0b3e0c
DTITLE=6666 - RGB
DYEAR=1900
DGENRE=Techno
TTITLE0=FireFly
TTITLE1=Afro Sports
TTITLE2=CECRET
TTITLE3=Flatness -SLBM sonar MIX-
TTITLE4=Trial -Original-
TTITLE5=Spaced Out
TTITLE6=Dragon Fly
TTITLE7=Dance Of Death -take2-
TTITLE8=Trial -Bacement MIX-
TTITLE9=Ach
TTITLE10=Phantasma
TTITLE11=Datatrack
EXTD=
EXTT0=
EXTT1=
EXTT2=
EXTT3=
EXTT4=
EXTT5=
EXTT6=
EXTT7=
EXTT8=
EXTT9=
EXTT10=
EXTT11=
PLAYORDER=
